HIERARCHY
ROOT Hips
{
    OFFSET   0.000000   0.000000   0.000000
    CHANNELS 6 Xposition Yposition Zposition Zrotation Xrotation Yrotation
    JOINT Chest
    {
        OFFSET   0.000000   8.007230   0.000000
        CHANNELS 3 Zrotation Xrotation Yrotation
        JOINT Chest2
        {
            OFFSET   0.000000  22.077100   0.000000
            CHANNELS 3 Zrotation Xrotation Yrotation
            JOINT Neck
            {
                OFFSET   0.000000  23.254800   0.000000
                CHANNELS 3 Zrotation Xrotation Yrotation
                JOINT Head
                {
                    OFFSET   0.000010  14.370000   1.956600
                    CHANNELS 3 Zrotation Xrotation Yrotation
                    End Site
                    {
                        OFFSET   0.000000  19.566000   0.000000
                    }
                }
            }
            JOINT LeftCollar
            {
                OFFSET   3.911900  19.017000  -0.467062
                CHANNELS 3 Zrotation Xrotation Yrotation
                JOINT LeftShoulder
                {
                    OFFSET  10.383700   0.000000   0.000000
                    CHANNELS 3 Zrotation Xrotation Yrotation
                    JOINT LeftElbow
                    {
                        OFFSET  26.662100   0.001193   0.000835
                        CHANNELS 3 Zrotation Xrotation Yrotation
                        JOINT LeftWrist
                        {
                            OFFSET  28.869000  -0.000058  -0.000075
                            CHANNELS 3 Zrotation Xrotation Yrotation
                            JOINT LeftFinger0
                            {
                                OFFSET   2.044660  -2.323460   3.252850
                                CHANNELS 3 Zrotation Xrotation Yrotation
                                JOINT LeftFinger01
                                {
                                    OFFSET   3.088130   0.000000   0.000000
                                    CHANNELS 3 Zrotation Xrotation Yrotation
                                    JOINT LeftFinger02
                                    {
                                        OFFSET   2.639450   0.000000   0.000000
                                        CHANNELS 3 Zrotation Xrotation Yrotation
                                        End Site
                                        {
                                            OFFSET   2.582190   0.000000   0.000000
                                        }
                                    }
                                }
                            }
                            JOINT LeftFinger1
                            {
                                OFFSET   8.364480   0.000000   3.252850
                                CHANNELS 3 Zrotation Xrotation Yrotation
                                JOINT LeftFinger11
                                {
                                    OFFSET   4.646920   0.000000   0.000000
                                    CHANNELS 3 Zrotation Xrotation Yrotation
                                    JOINT LeftFinger12
                                    {
                                        OFFSET   2.323460   0.000000   0.000000
                                        CHANNELS 3 Zrotation Xrotation Yrotation
                                        End Site
                                        {
                                            OFFSET   2.273050   0.000000   0.000000
                                        }
                                    }
                                }
                            }
                            JOINT LeftFinger2
                            {
                                OFFSET   8.364490   0.000016   1.078090
                                CHANNELS 3 Zrotation Xrotation Yrotation
                                JOINT LeftFinger21
                                {
                                    OFFSET   5.111620   0.000000   0.000000
                                    CHANNELS 3 Zrotation Xrotation Yrotation
                                    JOINT LeftFinger22
                                    {
                                        OFFSET   2.788150   0.000012   0.000000
                                        CHANNELS 3 Zrotation Xrotation Yrotation
                                        End Site
                                        {
                                            OFFSET   2.727660   0.000000   0.000000
                                        }
                                    }
                                }
                            }
                            JOINT LeftFinger3
                            {
                                OFFSET   7.899780   0.000014  -1.078090
                                CHANNELS 3 Zrotation Xrotation Yrotation
                                JOINT LeftFinger31
                                {
                                    OFFSET   4.646930   0.000000   0.000000
                                    CHANNELS 3 Zrotation Xrotation Yrotation
                                    JOINT LeftFinger32
                                    {
                                        OFFSET   2.323470   0.000000   0.000000
                                        CHANNELS 3 Zrotation Xrotation Yrotation
                                        End Site
                                        {
                                            OFFSET   2.273050   0.000000   0.000000
                                        }
                                    }
                                }
                            }
                            JOINT LeftFinger4
                            {
                                OFFSET   7.435090   0.000000  -3.252850
                                CHANNELS 3 Zrotation Xrotation Yrotation
                                JOINT LeftFinger41
                                {
                                    OFFSET   3.717550   0.000000   0.000000
                                    CHANNELS 3 Zrotation Xrotation Yrotation
                                    JOINT LeftFinger42
                                    {
                                        OFFSET   1.858770   0.000000   0.000000
                                        CHANNELS 3 Zrotation Xrotation Yrotation
                                        End Site
                                        {
                                            OFFSET   1.818440   0.000000   0.000000
                                        }
                                    }
                                }
                            }
                        }
                    }
                }
            }
            JOINT RightCollar
            {
                OFFSET  -3.911900  19.017000  -0.467063
                CHANNELS 3 Zrotation Xrotation Yrotation
                JOINT RightShoulder
                {
                    OFFSET -10.383700   0.000023   0.000000
                    CHANNELS 3 Zrotation Xrotation Yrotation
                    JOINT RightElbow
                    {
                        OFFSET -26.662100   0.001246   0.001011
                        CHANNELS 3 Zrotation Xrotation Yrotation
                        JOINT RightWrist
                        {
                            OFFSET -28.869000  -0.000026  -0.000078
                            CHANNELS 3 Zrotation Xrotation Yrotation
                            JOINT RightFinger0
                            {
                                OFFSET  -2.044660  -2.323490   3.252850
                                CHANNELS 3 Zrotation Xrotation Yrotation
                                JOINT RightFinger01
                                {
                                    OFFSET  -3.088130   0.000000   0.000000
                                    CHANNELS 3 Zrotation Xrotation Yrotation
                                    JOINT RightFinger02
                                    {
                                        OFFSET  -2.639460   0.000000   0.000000
                                        CHANNELS 3 Zrotation Xrotation Yrotation
                                        End Site
                                        {
                                            OFFSET  -2.582190   0.000000   0.000000
                                        }
                                    }
                                }
                            }
                            JOINT RightFinger1
                            {
                                OFFSET  -8.364480   0.000000   3.252850
                                CHANNELS 3 Zrotation Xrotation Yrotation
                                JOINT RightFinger11
                                {
                                    OFFSET  -4.646920   0.000000   0.000000
                                    CHANNELS 3 Zrotation Xrotation Yrotation
                                    JOINT RightFinger12
                                    {
                                        OFFSET  -2.323470   0.000000   0.000000
                                        CHANNELS 3 Zrotation Xrotation Yrotation
                                        End Site
                                        {
                                            OFFSET  -2.273050   0.000000   0.000000
                                        }
                                    }
                                }
                            }
                            JOINT RightFinger2
                            {
                                OFFSET  -8.364480   0.000000   1.078090
                                CHANNELS 3 Zrotation Xrotation Yrotation
                                JOINT RightFinger21
                                {
                                    OFFSET  -5.111620   0.000000   0.000000
                                    CHANNELS 3 Zrotation Xrotation Yrotation
                                    JOINT RightFinger22
                                    {
                                        OFFSET  -2.788160   0.000000   0.000000
                                        CHANNELS 3 Zrotation Xrotation Yrotation
                                        End Site
                                        {
                                            OFFSET  -2.727660   0.000000   0.000000
                                        }
                                    }
                                }
                            }
                            JOINT RightFinger3
                            {
                                OFFSET  -7.899780   0.000000  -1.078090
                                CHANNELS 3 Zrotation Xrotation Yrotation
                                JOINT RightFinger31
                                {
                                    OFFSET  -4.646930   0.000000   0.000000
                                    CHANNELS 3 Zrotation Xrotation Yrotation
                                    JOINT RightFinger32
                                    {
                                        OFFSET  -2.323470   0.000000   0.000000
                                        CHANNELS 3 Zrotation Xrotation Yrotation
                                        End Site
                                        {
                                            OFFSET  -2.273050   0.000000   0.000000
                                        }
                                    }
                                }
                            }
                            JOINT RightFinger4
                            {
                                OFFSET  -7.435090   0.000000  -3.252850
                                CHANNELS 3 Zrotation Xrotation Yrotation
                                JOINT RightFinger41
                                {
                                    OFFSET  -3.717550   0.000000   0.000000
                                    CHANNELS 3 Zrotation Xrotation Yrotation
                                    JOINT RightFinger42
                                    {
                                        OFFSET  -1.858760   0.000000   0.000000
                                        CHANNELS 3 Zrotation Xrotation Yrotation
                                        End Site
                                        {
                                            OFFSET  -1.818440   0.000000   0.000000
                                        }
                                    }
                                }
                            }
                        }
                    }
                }
            }
        }
    }
    JOINT LeftHip
    {
        OFFSET   9.783010   0.000000   0.000000
        CHANNELS 3 Zrotation Xrotation Yrotation
        JOINT LeftKnee
        {
            OFFSET   0.000073 -41.789100   0.001749
            CHANNELS 3 Zrotation Xrotation Yrotation
            JOINT LeftAnkle
            {
                OFFSET   0.000111 -41.133200  -0.000179
                CHANNELS 3 Zrotation Xrotation Yrotation
                JOINT LeftToe
                {
                    OFFSET   0.000000  -6.358960  14.674500
                    CHANNELS 3 Zrotation Xrotation Yrotation
                    End Site
                    {
                        OFFSET   0.000000   0.000000   3.913200
                    }
                }
            }
        }
    }
    JOINT RightHip
    {
        OFFSET  -9.783010   0.000000   0.000000
        CHANNELS 3 Zrotation Xrotation Yrotation
        JOINT RightKnee
        {
            OFFSET   0.000424 -41.789200   0.005205
            CHANNELS 3 Zrotation Xrotation Yrotation
            JOINT RightAnkle
            {
                OFFSET   0.000000 -41.133200  -0.000155
                CHANNELS 3 Zrotation Xrotation Yrotation
                JOINT RightToe
                {
                    OFFSET   0.000000  -6.358960  14.674500
                    CHANNELS 3 Zrotation Xrotation Yrotation
                    End Site
                    {
                        OFFSET   0.000000   0.000000   3.913200
                    }
                }
            }
        }
    }
}
MOTION
Frames: 4
Frame Time:   0.016667
 -0.186059  89.300000  -1.976450  -5.331100 -19.395300  -5.813740  -1.493090  12.169600   4.044060  -4.022500  24.186300   8.722610  -1.114300   0.832929   0.016227  -1.831700   1.687620   7.184050  -3.099870  -3.315270   0.576530 -67.143100  20.903300 -12.718100  -1.290960  -7.477640 -17.845400  11.428900  -0.492508   1.952760  35.799600  27.881900 -54.827300 -34.614300  -0.005637   0.002552 -12.309300   0.002674   0.002145 -29.132900   5.058410  -8.987780 -24.165300  -0.000853   0.000819 -16.915700   0.005862   0.006287 -28.372300  -1.126140   2.084000 -35.027200  -0.001482   0.001340 -23.328100  -0.001071   0.001955 -28.330700  -1.124800   2.084720 -34.679700   0.000236  -0.008033 -23.096700   0.003003  -0.009044 -33.148000  -1.295710   1.983040 -49.754600   0.001173   0.000698 -33.136600   0.006941   0.002959   4.296190  -5.023790   7.895160  24.394600   0.145278  34.980200 -29.875900 -15.680400  60.260700  50.652100 -53.141600  40.369600 -39.838600  48.335900  83.333000  47.583400  -0.002144   0.001390  22.482300  -0.004645  -0.000617   3.219480   0.737566  12.813200   2.701960  -0.002192   0.000741   1.891360  -0.001650   0.000746   9.791310   2.093890  11.982800  10.012500  -0.000879   0.001139   6.668300  -0.005644  -0.002445  88.991300  -4.999240  -0.086567 110.000000  -0.004582   0.003456  80.007100   0.005470   0.001292  86.636500  -9.981680  -0.584246 110.000000  -0.004050  -0.007235  80.000000   0.002562  -0.002530   2.599770  21.864400   7.037790   1.554270   0.068402   0.884920  -1.024850  -3.021170   2.873450  -0.000000   0.000000   0.000000   6.100030  13.281700  -1.061040  -5.252580  14.797300  -2.938270   1.327860  -8.500850   1.310750   0.000000   0.000000  -0.000000
 -0.192808  89.279200  -2.043030  -5.470630 -19.254900  -6.326140  -1.459950  12.158400   4.145680  -3.977030  24.168200   8.924990  -1.069590   0.683464   0.012821  -1.757600   1.384950   7.459650  -3.271740  -3.529750   0.678939 -67.160900  21.031100 -12.690400  -1.284400  -7.340370 -18.046400  11.377100  -0.512778   1.907780  35.843800  28.000200 -54.823700 -34.610100  -0.006188   0.002476 -12.308300   0.003115   0.001978 -29.149900   5.011480  -8.901710 -24.169100  -0.000481   0.000582 -16.918400   0.006774   0.006748 -28.370200  -1.171710   2.168540 -35.030300  -0.001106   0.001295 -23.330200  -0.000664   0.001947 -28.325600  -1.170290   2.169320 -34.679800   0.000497  -0.008232 -23.096700   0.003100  -0.009165 -33.167900  -1.349040   2.062960 -49.787900   0.000836   0.000951 -33.158800   0.006778   0.003307   4.200830  -4.963860   8.309230  23.406400  -0.191832  37.628800 -29.997200 -14.066500  57.361200  49.113500 -53.238400  39.429500 -39.576900  47.888600  82.970500  47.537500  -0.002177   0.001376  22.358700  -0.004573  -0.000643   3.633370   0.858503  13.322100   3.055360  -0.002250   0.000749   2.138740  -0.001680   0.000763  10.106900   2.206490  12.199200  10.342900  -0.000741   0.001171   6.888340  -0.005596  -0.002435  88.991000  -4.999240  -0.086790 110.000000  -0.004553   0.003390  80.007000   0.005467   0.001337  87.026000  -9.987110  -0.515921 110.000000  -0.004083  -0.007202  80.000000   0.002625  -0.002543   2.547830  21.831100   7.145910   1.565590   0.003475   1.039540  -0.974986  -3.044790   3.118770   0.000000   0.000000   0.000000   6.135620  12.934900  -1.187220  -5.402370  15.030600  -2.499260   1.347880  -8.519670   1.560890  -0.000000   0.000000  -0.000000
 -0.197050  89.260600  -2.083000  -5.579600 -19.130300  -6.669260  -1.414180  12.132200   4.211080  -3.898070  24.120500   9.054320  -1.013910   0.555196   0.009853  -1.665880   1.125170   7.670410  -3.422000  -3.676310   0.756732 -67.168200  21.228100 -12.743800  -1.275480  -7.283640 -18.116400  11.347400  -0.439363   1.883590  35.856100  28.036300 -54.726500 -34.611900  -0.006716   0.002386 -12.309200   0.003525   0.001863 -29.141500   4.969630  -8.832440 -24.155800  -0.000251   0.000385 -16.909100   0.007701   0.007225 -28.366100  -1.215980   2.251130 -34.980800  -0.000916   0.001307 -23.297300  -0.000410   0.001958 -28.320000  -1.214470   2.251940 -34.632600   0.000829  -0.008447 -23.065300   0.003222  -0.009262 -33.150500  -1.399820   2.141710 -49.766300   0.000569   0.001197 -33.144400   0.006623   0.003692   4.152170  -4.898740   8.662120  22.386800  -0.394160  39.948100 -29.958600 -12.838800  54.539400  48.929600 -53.457300  39.808700 -39.838800  48.005700  83.308000  47.138500  -0.002214   0.001367  21.893000  -0.004501  -0.000669   3.595310   0.863695  13.619100   3.026820  -0.002408   0.000762   2.118760  -0.001722   0.000774  10.126100   2.230070  12.277200  10.366300  -0.000630   0.001199   6.903890  -0.005546  -0.002428  88.990600  -4.999240  -0.087016 110.000000  -0.004521   0.003327  80.007000   0.005462   0.001377  87.167800  -9.988830  -0.490633 110.000000  -0.004123  -0.007171  80.000000   0.002679  -0.002551   2.564290  21.780000   7.220410   1.536380   0.000875   1.172520  -0.943729  -3.089020   3.230460   0.000000   0.000000  -0.000000   6.150460  12.742900  -1.268490  -5.475730  15.052900  -2.203420   1.376740  -8.488720   1.752030   0.000000   0.000000   0.000000
 -0.198131  89.244600  -2.096480  -5.649940 -19.016400  -6.842470  -1.357610  12.101000   4.243370  -3.781240  24.058000   9.099220  -0.950011   0.434553   0.007188  -1.561040   0.880735   7.829310  -3.562820  -3.783600   0.794582 -67.161600  21.479700 -12.856400  -1.270380  -7.272870 -18.126300  11.332800  -0.321787   1.875560  35.888500  28.046400 -54.605100 -34.615600  -0.007221   0.002032 -12.310500   0.003887   0.001463 -29.120200   4.934920  -8.778620 -24.135700   0.000527   0.000269 -16.895000   0.008641   0.007720 -28.361600  -1.257140   2.328030 -34.921300  -0.000337   0.001372 -23.257600   0.000450   0.001993 -28.315300  -1.255560   2.328870 -34.567200   0.001228  -0.008677 -23.021800   0.003397  -0.009329 -33.131500  -1.446690   2.215280 -49.739000   0.000444   0.001433 -33.126200   0.006479   0.004122   4.119030  -4.836890   8.965410  21.472600  -0.570312  41.908400 -29.795700 -11.932700  52.022100  48.786300 -53.672400  40.197400 -40.367600  48.357300  83.995900  46.686900  -0.002251   0.001360  21.451500  -0.004429  -0.000695   3.558450   0.869158  13.833500   2.998280  -0.002516   0.000775   2.098780  -0.001747   0.000785  10.142200   2.252960  12.433500  10.389600  -0.000545   0.001224   6.919430  -0.005494  -0.002420  88.990300  -4.999240  -0.087243 110.000000  -0.004484   0.003266  80.006900   0.005456   0.001411  87.305500  -9.989420  -0.466175 110.000000  -0.004163  -0.007139  80.000000   0.002730  -0.002559   2.632660  21.714300   7.280520   1.480640   0.000504   1.239620  -0.925717  -3.135290   3.250660   0.000000   0.000000   0.000000   6.157910  12.648200  -1.308230  -5.490420  15.056700  -2.083270   1.401010  -8.432110   1.863340   0.000000   0.000000   0.000000
